<svg version="1.1" xmlns="http://www.w3.org/2000/svg" xmlns:xlink="http://www.w3.org/1999/xlink" style="" xml:space="preserve" width="101.5873031616211" height="100"><rect id="backgroundrect" width="100%" height="100%" x="0" y="0" fill="none" stroke="none"/>

<g class="currentLayer" style=""><title>Layer 1</title><g id="svg_1" class="">
	<path d="M49.96658751869745,46.82005310058594 c-18.525430077959527,0 -33.59737597957769,12.594158172607422 -33.59737597957769,28.073312759399414 c0,0.615982174873352 0.6197619105998484,1.1159096956253052 1.3854588100675898,1.1159096956253052 h64.42383144274027 c0.7647733152903484,0 1.3854588100675898,-0.4999275505542755 1.3854588100675898,-1.1159096956253052 C83.56396560466055,59.41346740722656 68.49294651262244,46.82005310058594 49.96658751869745,46.82005310058594 zM19.16876415240222,73.77745819091797 c0.6991949550473535,-13.733128547668457 14.24621122542817,-24.725584030151367 30.797827579066052,-24.725584030151367 s30.098634006334123,10.992454528808594 30.798750175875284,24.725584030151367 H19.16876415240222 z" id="svg_2"/>
	<path d="M49.386543743022685,43.753536224365234 c10.684657892474775,0 19.377026954203757,-7.245973587036133 19.377026954203757,-16.15316390991211 S60.07212317911399,11.44720458984375 49.386543743022685,11.44720458984375 c-10.685582595669416,0 -19.37794955101299,7.246717929840088 -19.37794955101299,16.15316390991211 S38.70096430693138,43.753536224365234 49.386543743022685,43.753536224365234 zM49.386543743022685,13.679023742675781 c9.15695869354704,0 16.606109597366753,6.245375156402588 16.606109597366753,13.921345710754395 s-7.449149850627009,13.921345710754395 -16.606109597366753,13.921345710754395 c-9.157882343548977,0 -16.607032194175986,-6.245375156402588 -16.607032194175986,-13.921345710754395 S40.229585049475645,13.679023742675781 49.386543743022685,13.679023742675781 z" id="svg_3"/>
</g><line fill="" fill-opacity="1" stroke="#000000" stroke-opacity="1" style="color: rgb(0, 0, 0);" stroke-width="5" stroke-dasharray="none" stroke-linejoin="miter" stroke-linecap="butt" stroke-dashoffset="" fill-rule="nonzero" opacity="1" marker-start="" marker-mid="" marker-end="" id="svg_4" x1="1.5982458591461182" y1="2.298849105834961" x2="1.5982458591461182" y2="2.298849105834961"/><path fill="" fill-opacity="1" stroke="#000000" stroke-opacity="1" stroke-width="5" stroke-dasharray="none" stroke-linejoin="miter" stroke-linecap="butt" stroke-dashoffset="" fill-rule="nonzero" opacity="1" marker-start="" marker-mid="" marker-end="" d="M100.44882018864155,99.99999985098839L100.44882018864155,-5.0574710220098495" id="svg_5"/><path fill="" fill-opacity="1" stroke="#000000" stroke-opacity="1" stroke-width="5" stroke-dasharray="none" stroke-linejoin="miter" stroke-linecap="butt" stroke-dashoffset="" fill-rule="nonzero" opacity="1" marker-start="" marker-mid="" marker-end="" d="M100.67870524525642,2.0689657330513L-14.9534782320261,2.0689657330513" id="svg_7"/><path fill="" fill-opacity="1" stroke="#000000" stroke-opacity="1" stroke-width="5" stroke-dasharray="none" stroke-linejoin="miter" stroke-linecap="butt" stroke-dashoffset="" fill-rule="nonzero" opacity="1" marker-start="" marker-mid="" marker-end="" d="M1.1384757310152054,1.6091956198215485L1.1384757310152054,110.11494234204292" id="svg_9"/><path fill="" fill-opacity="1" stroke="#000000" stroke-opacity="1" stroke-width="5" stroke-dasharray="none" stroke-linejoin="miter" stroke-linecap="butt" stroke-dashoffset="" fill-rule="nonzero" opacity="1" marker-start="" marker-mid="" marker-end="" d="M0.6787056177854538,98.39080445468426L116.31088909506798,98.39080445468426" id="svg_11"/><path fill="" fill-opacity="1" stroke="#000000" stroke-opacity="1" stroke-width="2" stroke-dasharray="none" stroke-linejoin="miter" stroke-linecap="butt" stroke-dashoffset="" fill-rule="nonzero" opacity="1" marker-start="" marker-mid="" marker-end="" d="M9.214708089828491,78.4210593700409L91.31997418403625,78.4210593700409" id="svg_6"/><path fill="" fill-opacity="1" stroke="#000000" stroke-opacity="1" stroke-width="2" stroke-dasharray="none" stroke-linejoin="miter" stroke-linecap="butt" stroke-dashoffset="" fill-rule="nonzero" opacity="1" marker-start="" marker-mid="" marker-end="" d="M90.26734256744385,78.4210593700409L90.26734256744385,11.052635908126831" id="svg_8"/><path fill="" fill-opacity="1" stroke="#000000" stroke-opacity="1" stroke-width="2" stroke-dasharray="none" stroke-linejoin="miter" stroke-linecap="butt" stroke-dashoffset="" fill-rule="nonzero" opacity="1" marker-start="" marker-mid="" marker-end="" d="M90.26734256744385,8.947372674942017L90.26734256744385,13.157899141311646" id="svg_10"/><path fill="" fill-opacity="1" stroke="#000000" stroke-opacity="1" stroke-width="2" stroke-dasharray="none" stroke-linejoin="miter" stroke-linecap="butt" stroke-dashoffset="" fill-rule="nonzero" opacity="1" marker-start="" marker-mid="" marker-end="" d="M90.26734256744385,10.000004291534424L11.319971323013306,10.000004291534424" id="svg_12" class="selected"/><path fill="" fill-opacity="1" stroke="#000000" stroke-opacity="1" stroke-width="2" stroke-dasharray="none" stroke-linejoin="miter" stroke-linecap="butt" stroke-dashoffset="" fill-rule="nonzero" opacity="1" marker-start="" marker-mid="" marker-end="" d="M10.155202150344849,78.53086143732071L10.155202150344849,9.271604031324387" id="svg_13"/><path fill="" fill-opacity="1" stroke="#000000" stroke-opacity="1" stroke-width="2" stroke-dasharray="none" stroke-linejoin="miter" stroke-linecap="butt" stroke-dashoffset="" fill-rule="nonzero" opacity="1" marker-start="" marker-mid="" marker-end="" d="M12.266312092542648,10.012344747781754L9.30334922671318,10.012344747781754" id="svg_14"/></g></svg>